<svg xmlns="http://www.w3.org/2000/svg" viewBox="0 0 1500 313.03" class="h-full">
<path d="M630.4 176.29h-35.47v-22.11h96.64v22.11H656.1v101.78h-25.7V176.29zM703.41 225.12h38.21c-.69-9.59-7.37-17.31-18.85-17.31-10.8 0-17.3 5.32-19.36 17.31m62.2 23.65c-3.43 18.68-19.88 30.67-41.13 30.67-29.29 0-44.38-23-44.38-44.72 0-21.93 13.37-44.38 42.67-44.38 30.5 0 42.66 22.45 42.66 42.15 0 3.26-.16 5.82-.34 7.71h-62c1.71 12.17 9.42 19.7 21.41 19.7 9.6 0 15.94-3.77 17.82-11.13zM778.44 234.89c0-25.19 17.82-44.56 44.55-44.56 22.62 0 40.61 13.71 42.15 33.76h-24c-1.37-7.71-8.74-13.36-17.48-13.36-12.85 0-20.39 10.11-20.39 24.16s7.7 24 20.73 24c8.74 0 15.77-5.3 17.48-13h24.33c-2.55 19.11-20.37 33.55-42.81 33.55-26.73 0-44.55-19.37-44.55-44.55M878.66 154.18h23.82v49.52c5-8.39 14.39-13.36 26.38-13.36 19.36 0 32 14 32 33.92v53.81h-23.77v-48.49c0-10.46-6.86-18-16.8-18-10.44 0-17.81 8-17.81 19.19v47.29h-23.82zM978.26 191.71h24v12c4.8-8.4 14.39-13.36 26.22-13.36 19.53 0 32.22 14 32.22 33.93v53.8h-24v-48.5c0-10.46-6.68-18-16.62-18-10.45 0-17.82 8.06-17.82 19.19v47.3h-24zM1140.09 234.89c0-14.4-8.74-24.16-21.59-24.16s-21.58 9.76-21.58 24.16c0 14.22 8.73 24 21.58 24s21.59-9.76 21.59-24m-67.17 0c0-25.71 19-44.56 45.58-44.56s45.58 18.85 45.58 44.56-19 44.55-45.58 44.55-45.58-18.85-45.58-44.55M1177.83 154.18h23.82v123.89h-23.82zM1282.39 234.89c0-14.4-8.75-24.16-21.59-24.16s-21.6 9.76-21.6 24.16c0 14.22 8.75 24 21.6 24s21.59-9.76 21.59-24m-67.17 0c0-25.71 19-44.56 45.58-44.56s45.58 18.85 45.58 44.56-19 44.55-45.58 44.55-45.58-18.85-45.58-44.55M1381.43 234.89c0-14.57-8.39-24.16-21.24-24.16-12.68 0-21.08 9.59-21.08 24.16s8.4 24 21.08 24c12.85 0 21.24-9.43 21.24-24m22.45-43.18v91.5c0 18-13 29.82-32.56 29.82h-43.52v-18.68h39.76c7.2 0 12.5-5.66 12.5-13.71v-11.31c-4.45 6.34-13.53 10.11-23.64 10.11-25.53 0-40.78-17.65-40.78-44.55s15.25-44.55 40.44-44.55c10.45 0 19 3.94 23.82 9.93v-8.56zM1473.82 191.71l-18 55.69-18.15-55.69h-24.34l31.36 85.67-12.68 35.64h22.78l12.18-35.3 31.35-86.01h-24.5zM587.74.03h26.04l22.97 85.98L661.25.03h21.76l24.67 85.98L730.81.03h26.06L721.4 123.89h-25.37l-23.81-83.76-23.82 83.76h-25.02L587.74.03zM1095.76.03h26.03l22.97 85.98 24.5-85.98h21.76l24.68 85.98L1238.83.03h26.05l-35.47 123.86h-25.36l-23.81-83.76-23.83 83.76h-25.02L1095.76.03zM818.37 80.7c0-14.39-8.75-24.15-21.59-24.15s-21.6 9.76-21.6 24.15c0 14.23 8.75 24 21.6 24s21.59-9.76 21.59-24m-67.17 0c0-25.7 19-44.54 45.58-44.54S842.35 55 842.35 80.7s-19 44.56-45.57 44.56-45.58-18.85-45.58-44.56M896.34 57.4c-11.82 0-17.13 9.77-17.13 24.51v42h-24V37.52h24v14.4c4.63-10.8 11.14-14.4 21.59-14.4h9.77V57.4zM920.61 0h23.82v123.89h-23.82zM1024.33 80.7c0-14.56-8.4-24.15-21.07-24.15s-21.09 9.59-21.09 24.15c0 14.4 8.41 24 21.09 24s21.07-9.59 21.07-24m-65.8 0c0-26.9 15.43-44.54 40.44-44.54 10.8 0 19.19 4.11 24 10.44V0h23.83v123.89H1023v-9.43c-4.79 6.68-13.71 10.8-23.64 10.8-25.35 0-40.78-17.65-40.78-44.56M1275.72 123.89h24V37.53h-24zm-.69-98.7h25.35V0H1275zM1378.52 80.7c0-14.56-8.4-24.15-21.08-24.15s-21.08 9.59-21.08 24.15c0 14.4 8.4 24 21.08 24s21.08-9.59 21.08-24m-65.8 0c0-26.9 15.42-44.54 40.43-44.54 10.8 0 19.2 4.11 24 10.44V0H1401v123.89h-23.83v-9.43c-4.79 6.68-13.71 10.8-23.64 10.8-25.36 0-40.78-17.65-40.78-44.56M1437.8 70.94h38.2c-.69-9.6-7.37-17.31-18.85-17.31-10.8 0-17.31 5.32-19.36 17.31M1500 94.59c-3.43 18.67-19.88 30.67-41.13 30.67-29.3 0-44.38-23-44.38-44.73 0-21.93 13.37-44.37 42.67-44.37 30.5 0 42.66 22.44 42.66 42.15 0 3.25-.16 5.82-.34 7.71h-62c1.71 12.16 9.42 19.7 21.41 19.7 9.6 0 15.94-3.77 17.82-11.13z"></path><path d="M340.47 214.15l63.18 63.17a2.83 2.83 0 002 .81h79a2.79 2.79 0 002-4.76L383.9 170.71l63.17-63.17a2.78 2.78 0 000-3.94l-39.48-39.49a2.79 2.79 0 00-3.95 0L233.86 233.89a2.79 2.79 0 000 4l39.49 39.48a2.79 2.79 0 003.95 0z" fill="#0086ea"></path><path d="M336.61.85l-61.29 61.29L214 .85a2.79 2.79 0 00-2-.82h-79a2.79 2.79 0 00-2 4.77l100.89 100.77-21.72 21.72L83.74.85a2.82 2.82 0 00-2-.82H2.8a2.8 2.8 0 00-2 4.77l207.4 207.37a2.79 2.79 0 004 0L419.53 4.8a2.8 2.8 0 00-2-4.77h-79a2.8 2.8 0 00-2 .82M466.9.85l-37.6 37.6a2.79 2.79 0 000 3.95l39.49 39.48a2.78 2.78 0 003.94 0L549.82 4.8a2.8 2.8 0 00-2-4.77h-79a2.84 2.84 0 00-2 .82" fill="#ee282a"></path>
</svg>